<?xml version="1.0" encoding="UTF-8"?>
<!DOCTYPE svg PUBLIC "-//W3C//DTD SVG 1.1//EN" "http://www.w3.org/Graphics/SVG/1.1/DTD/svg11.dtd">
<svg xmlns="http://www.w3.org/2000/svg" version="1.1" width="208px" height="246px" style="shape-rendering:geometricPrecision; text-rendering:geometricPrecision; image-rendering:optimizeQuality; fill-rule:evenodd; clip-rule:evenodd" xmlns:xlink="http://www.w3.org/1999/xlink">
<g><path style="opacity:1" fill="#c3c3c3" d="M 207.5,0.5 C 207.5,1.16667 207.5,1.83333 207.5,2.5C -68.5,1.83333 -68.5,1.16667 207.5,0.5 Z"/></g>
<g><path style="opacity:1" fill="#cccccb" d="M -0.5,-0.5 C 68.8333,-0.5 138.167,-0.5 207.5,-0.5C 207.5,-0.166667 207.5,0.166667 207.5,0.5C -68.5,1.16667 -68.5,1.83333 207.5,2.5C 207.5,83.5 207.5,164.5 207.5,245.5C 138.167,245.5 68.8333,245.5 -0.5,245.5C -0.5,163.5 -0.5,81.5 -0.5,-0.5 Z"/></g>
<g><path style="opacity:1" fill="#c0c0be" d="M 15.5,242.5 C 76.8333,242.5 138.167,242.5 199.5,242.5C 200.5,243.167 201.5,243.833 202.5,244.5C 140.167,244.5 77.8333,244.5 15.5,244.5C 15.5,243.833 15.5,243.167 15.5,242.5 Z"/></g>
<g><path style="opacity:1" fill="#d5d5d4" d="M 203.5,3.5 C 204.338,3.84171 204.672,4.50838 204.5,5.5C 204.5,84.5 204.5,163.5 204.5,242.5C 202.833,242.5 201.167,242.5 199.5,242.5C 138.167,242.5 76.8333,242.5 15.5,242.5C 11.2984,242.817 7.29841,242.483 3.5,241.5C 7.5,241.5 11.5,241.5 15.5,241.5C 76.8333,241.5 138.167,241.5 199.5,241.5C 200.833,241.5 202.167,241.5 203.5,241.5C 203.5,162.167 203.5,82.8333 203.5,3.5 Z"/></g>
<g><path style="opacity:1" fill="#c1c1c1" d="M 204.5,5.5 C 206.497,84.8263 207.164,164.493 206.5,244.5C 205.167,244.5 203.833,244.5 202.5,244.5C 201.5,243.833 200.5,243.167 199.5,242.5C 201.167,242.5 202.833,242.5 204.5,242.5C 204.5,163.5 204.5,84.5 204.5,5.5 Z"/></g>
<g><path style="opacity:1" fill="#c3c3c3" d="M 3.5,241.5 C 7.29841,242.483 11.2984,242.817 15.5,242.5C 15.5,243.167 15.5,243.833 15.5,244.5C 10.5,244.5 5.5,244.5 0.5,244.5C 0.16669,164.497 0.500023,84.4972 1.5,4.5C 2.16667,83.6656 2.83333,162.666 3.5,241.5 Z"/></g>
<g><path style="opacity:1" fill="#e7e7e7" d="M 203.5,3.5 C 203.5,82.8333 203.5,162.167 203.5,241.5C 202.167,241.5 200.833,241.5 199.5,241.5C 169.174,240.167 138.507,239.5 107.5,239.5C 76.4927,239.5 45.826,240.167 15.5,241.5C 11.5,241.5 7.5,241.5 3.5,241.5C 3.5,162.167 3.5,82.8333 3.5,3.5C 70.1667,3.5 136.833,3.5 203.5,3.5 Z"/></g>
<g><path style="opacity:1" fill="#e8e8e6" d="M 199.5,241.5 C 138.167,241.5 76.8333,241.5 15.5,241.5C 45.826,240.167 76.4927,239.5 107.5,239.5C 138.507,239.5 169.174,240.167 199.5,241.5 Z"/></g>
<g><path style="opacity:1" fill="#cacaca" d="M 84.5,203.5 C 85.1667,203.5 85.8333,203.5 86.5,203.5C 86.62,204.586 87.2867,205.253 88.5,205.5C 90.4216,205.199 92.0883,204.533 93.5,203.5C 94.1667,203.5 94.8333,203.5 95.5,203.5C 95.4226,204.75 94.756,205.583 93.5,206C 94.1667,206.333 94.8333,206.667 95.5,207C 93.2499,207.611 91.5832,208.944 90.5,211C 86.4819,211.919 82.8153,213.586 79.5,216C 76.854,216.497 74.1873,216.664 71.5,216.5C 71.5,215.5 71.5,214.5 71.5,213.5C 75.6071,213.075 79.2738,211.575 82.5,209C 84.1554,207.556 84.822,205.722 84.5,203.5 Z"/></g>
<g><path style="opacity:1" fill="#d2d2d2" d="M 95.5,170.5 C 95.9926,172.806 96.3259,175.139 96.5,177.5C 98.3224,177.831 99.9891,178.498 101.5,179.5C 104.334,182.832 104.001,185.832 100.5,188.5C 99.8182,187.757 99.1515,187.091 98.5,186.5C 96.8333,185.167 95.1667,185.167 93.5,186.5C 93.5,192.167 93.5,197.833 93.5,203.5C 92.0883,204.533 90.4216,205.199 88.5,205.5C 87.2867,205.253 86.62,204.586 86.5,203.5C 87.791,203.737 88.791,203.404 89.5,202.5C 89.5,196.833 89.5,191.167 89.5,185.5C 87.901,185.232 86.5676,185.566 85.5,186.5C 84.5111,191.975 84.1778,197.642 84.5,203.5C 84.822,205.722 84.1554,207.556 82.5,209C 79.2738,211.575 75.6071,213.075 71.5,213.5C 71.5,214.5 71.5,215.5 71.5,216.5C 63.6632,217.979 55.6632,219.312 47.5,220.5C 47.5,221.5 47.5,222.5 47.5,223.5C 40.1591,223.666 32.8258,223.5 25.5,223C 23.5204,221.175 21.1871,220.341 18.5,220.5C 18.5,221.5 18.5,222.5 18.5,223.5C 16.7376,222.738 15.7376,221.404 15.5,219.5C 16.5,219.5 17.5,219.5 18.5,219.5C 17.245,214.224 16.245,208.891 15.5,203.5C 17.3319,207.64 18.6652,211.973 19.5,216.5C 28.9024,218.836 35.5691,215.836 39.5,207.5C 42.1457,207.108 44.6457,207.108 47,207.5C 47.49,206.207 47.6567,204.873 47.5,203.5C 46.1667,203.5 44.8333,203.5 43.5,203.5C 43.5,202.5 43.5,201.5 43.5,200.5C 44.7791,201.968 46.4458,202.635 48.5,202.5C 47.551,200.263 46.8844,197.929 46.5,195.5C 47.1174,195.611 47.6174,195.944 48,196.5C 48.6077,194.846 49.1077,193.179 49.5,191.5C 51.8061,195.085 53.1394,199.085 53.5,203.5C 59.7013,204.466 62.5346,201.8 62,195.5C 62.6082,193.934 63.4415,192.6 64.5,191.5C 64.369,192.239 64.5357,192.906 65,193.5C 65.7096,192.027 66.8762,191.36 68.5,191.5C 67.4991,194.838 66.4991,198.171 65.5,201.5C 64.9569,201.56 64.6236,201.893 64.5,202.5C 66.396,203.466 68.396,203.799 70.5,203.5C 70.5,202.5 70.5,201.5 70.5,200.5C 72.8333,200.5 75.1667,200.5 77.5,200.5C 78.0483,203.084 79.715,204.084 82.5,203.5C 81.0953,197.954 79.0953,192.62 76.5,187.5C 73.4116,185.911 71.0783,186.578 69.5,189.5C 69.4326,186.234 71.0992,184.734 74.5,185C 73.3463,184.086 73.513,183.253 75,182.5C 75.414,182.957 75.914,183.291 76.5,183.5C 77.6256,182.192 77.6256,180.858 76.5,179.5C 77.8333,179.5 79.1667,179.5 80.5,179.5C 81.3171,177.031 81.8171,174.365 82,171.5C 82.3826,172.056 82.8826,172.389 83.5,172.5C 84.3563,177.029 87.023,179.363 91.5,179.5C 92.404,178.791 92.7373,177.791 92.5,176.5C 93.552,176.649 94.552,176.483 95.5,176C 94.193,174.057 94.193,172.223 95.5,170.5 Z"/></g>
<g><path style="opacity:1" fill="#bababa" d="M 85.5,186.5 C 85.5,191.833 85.5,197.167 85.5,202.5C 86.8333,202.5 88.1667,202.5 89.5,202.5C 88.791,203.404 87.791,203.737 86.5,203.5C 85.8333,203.5 85.1667,203.5 84.5,203.5C 84.1778,197.642 84.5111,191.975 85.5,186.5 Z"/></g>
<g><path style="opacity:1" fill="#bbbbbb" d="M 77.5,200.5 C 75.1667,200.5 72.8333,200.5 70.5,200.5C 70.5,201.5 70.5,202.5 70.5,203.5C 68.396,203.799 66.396,203.466 64.5,202.5C 64.6236,201.893 64.9569,201.56 65.5,201.5C 66.5676,202.434 67.901,202.768 69.5,202.5C 69.5,201.5 69.5,200.5 69.5,199.5C 72.3854,199.194 75.0521,199.527 77.5,200.5 Z"/></g>
<g><path style="opacity:1" fill="#a1a1a1" d="M 116.5,185.5 C 117.496,185.414 118.329,185.748 119,186.5C 121.087,192.009 122.587,197.675 123.5,203.5C 122.167,203.5 120.833,203.5 119.5,203.5C 119.5,202.5 119.5,201.5 119.5,200.5C 116.833,200.5 114.167,200.5 111.5,200.5C 111.5,201.5 111.5,202.5 111.5,203.5C 110.167,203.5 108.833,203.5 107.5,203.5C 107.517,201.435 107.85,199.435 108.5,197.5C 110.963,193.9 112.297,189.9 112.5,185.5C 113.833,185.5 115.167,185.5 116.5,185.5 Z"/></g>
<g><path style="opacity:1" fill="#b2b2b2" d="M 114.5,191.5 C 115.496,191.414 116.329,191.748 117,192.5C 117.494,194.134 117.66,195.801 117.5,197.5C 116.167,197.5 114.833,197.5 113.5,197.5C 113.325,195.379 113.659,193.379 114.5,191.5 Z"/></g>
<g><path style="opacity:1" fill="#b5b5b5" d="M 93.5,186.5 C 95.1667,185.167 96.8333,185.167 98.5,186.5C 98.5,190.833 98.5,195.167 98.5,199.5C 100.5,199.5 102.5,199.5 104.5,199.5C 105.167,199.5 105.5,199.833 105.5,200.5C 102.833,200.5 100.167,200.5 97.5,200.5C 97.5,195.833 97.5,191.167 97.5,186.5C 96.1667,186.5 94.8333,186.5 93.5,186.5 Z"/></g>
<g><path style="opacity:1" fill="#d7d7d7" d="M 33.5,195.5 C 32.6295,198.112 31.9628,200.779 31.5,203.5C 34.285,204.084 35.9517,203.084 36.5,200.5C 38.8333,200.5 41.1667,200.5 43.5,200.5C 43.5,201.5 43.5,202.5 43.5,203.5C 44.8333,203.5 46.1667,203.5 47.5,203.5C 47.6567,204.873 47.49,206.207 47,207.5C 44.6457,207.108 42.1457,207.108 39.5,207.5C 35.5691,215.836 28.9024,218.836 19.5,216.5C 18.6652,211.973 17.3319,207.64 15.5,203.5C 15.5,200.833 15.5,198.167 15.5,195.5C 21.5444,194.656 27.5444,194.656 33.5,195.5 Z"/></g>
<g><path style="opacity:1" fill="#a9a9a9" d="M 77.5,200.5 C 75.0521,199.527 72.3854,199.194 69.5,199.5C 69.5,200.5 69.5,201.5 69.5,202.5C 67.901,202.768 66.5676,202.434 65.5,201.5C 66.4991,198.171 67.4991,194.838 68.5,191.5C 69.3382,191.158 69.6716,190.492 69.5,189.5C 71.0783,186.578 73.4116,185.911 76.5,187.5C 79.0953,192.62 81.0953,197.954 82.5,203.5C 79.715,204.084 78.0483,203.084 77.5,200.5 Z"/></g>
<g><path style="opacity:1" fill="#d5d5d5" d="M 72.5,191.5 C 73.6491,191.791 74.3158,192.624 74.5,194C 74.1667,194.833 73.8333,195.667 73.5,196.5C 72.5481,194.955 72.2148,193.288 72.5,191.5 Z"/></g>
<g><path style="opacity:1" fill="#a8a8a8" d="M 59.5,191.5 C 60.2216,191.082 60.7216,190.416 61,189.5C 61.3333,190.167 61.6667,190.833 62,191.5C 62.3333,190.167 62.6667,188.833 63,187.5C 63.6708,186.748 64.5041,186.414 65.5,186.5C 64.6993,188.042 64.366,189.708 64.5,191.5C 63.4415,192.6 62.6082,193.934 62,195.5C 62.5346,201.8 59.7013,204.466 53.5,203.5C 53.1394,199.085 51.8061,195.085 49.5,191.5C 48.962,189.883 48.6287,188.216 48.5,186.5C 50.1667,186.5 51.8333,186.5 53.5,186.5C 54.1667,189.833 54.8333,193.167 55.5,196.5C 56.5,196.5 57.5,196.5 58.5,196.5C 58.2155,194.585 58.5489,192.919 59.5,191.5 Z"/></g>
<g><path style="opacity:1" fill="#a6a6a6" d="M 89.5,202.5 C 88.1667,202.5 86.8333,202.5 85.5,202.5C 85.5,197.167 85.5,191.833 85.5,186.5C 86.5676,185.566 87.901,185.232 89.5,185.5C 89.5,191.167 89.5,196.833 89.5,202.5 Z"/></g>
<g><path style="opacity:1" fill="#a2a2a2" d="M 93.5,186.5 C 94.8333,186.5 96.1667,186.5 97.5,186.5C 97.5,191.167 97.5,195.833 97.5,200.5C 100.167,200.5 102.833,200.5 105.5,200.5C 105.5,201.5 105.5,202.5 105.5,203.5C 102.167,203.5 98.8333,203.5 95.5,203.5C 94.8333,203.5 94.1667,203.5 93.5,203.5C 93.5,197.833 93.5,192.167 93.5,186.5 Z"/></g>
<g><path style="opacity:1" fill="#a9a9a9" d="M 46.5,195.5 C 46.8844,197.929 47.551,200.263 48.5,202.5C 46.4458,202.635 44.7791,201.968 43.5,200.5C 41.9581,199.837 40.2914,199.17 38.5,198.5C 39.6888,197.571 41.0222,197.238 42.5,197.5C 42.5,195.167 42.5,192.833 42.5,190.5C 41.209,190.263 40.209,190.596 39.5,191.5C 39.5,192.167 39.1667,192.5 38.5,192.5C 37.7451,195.053 37.0784,197.72 36.5,200.5C 35.9517,203.084 34.285,204.084 31.5,203.5C 31.9628,200.779 32.6295,198.112 33.5,195.5C 35.2525,192.854 36.2525,189.854 36.5,186.5C 38.8333,186.5 41.1667,186.5 43.5,186.5C 44.2163,189.598 45.2163,192.598 46.5,195.5 Z"/></g>
<g><path style="opacity:1" fill="#b4b4b4" d="M 39.5,191.5 C 40.209,190.596 41.209,190.263 42.5,190.5C 42.5,192.833 42.5,195.167 42.5,197.5C 41.0222,197.238 39.6888,197.571 38.5,198.5C 40.2914,199.17 41.9581,199.837 43.5,200.5C 41.1667,200.5 38.8333,200.5 36.5,200.5C 37.0784,197.72 37.7451,195.053 38.5,192.5C 38.5,193.833 38.5,195.167 38.5,196.5C 39.5,196.5 40.5,196.5 41.5,196.5C 41.8799,194.302 41.2132,192.635 39.5,191.5 Z"/></g>
<g><path style="opacity:1" fill="#d6d6d6" d="M 39.5,191.5 C 41.2132,192.635 41.8799,194.302 41.5,196.5C 40.5,196.5 39.5,196.5 38.5,196.5C 38.5,195.167 38.5,193.833 38.5,192.5C 39.1667,192.5 39.5,192.167 39.5,191.5 Z"/></g>
<g><path style="opacity:1" fill="#d7d7d7" d="M 9.5,183.5 C 9.83333,183.5 10.1667,183.5 10.5,183.5C 10.5012,191.517 10.8345,199.517 11.5,207.5C 10.6981,206.048 10.1981,204.382 10,202.5C 9.50046,196.175 9.33379,189.842 9.5,183.5 Z"/></g>
<g><path style="opacity:1" fill="#a6a6a7" d="M 82.5,163.5 C 83.6433,166.264 84.9766,168.931 86.5,171.5C 86.7086,172.922 87.2086,174.255 88,175.5C 88.4988,171.514 88.6655,167.514 88.5,163.5C 89.5,163.5 90.5,163.5 91.5,163.5C 91.5,168.833 91.5,174.167 91.5,179.5C 87.023,179.363 84.3563,177.029 83.5,172.5C 83.5852,171.005 82.9185,170.005 81.5,169.5C 80.5159,172.428 80.1826,175.428 80.5,178.5C 79.5,178.5 78.5,178.5 77.5,178.5C 77.5,173.5 77.5,168.5 77.5,163.5C 79.1667,163.5 80.8333,163.5 82.5,163.5 Z"/></g>
<g><path style="opacity:1" fill="#c6c6c6" d="M 83.5,172.5 C 82.8826,172.389 82.3826,172.056 82,171.5C 81.8171,174.365 81.3171,177.031 80.5,179.5C 80.5,179.167 80.5,178.833 80.5,178.5C 80.1826,175.428 80.5159,172.428 81.5,169.5C 82.9185,170.005 83.5852,171.005 83.5,172.5 Z"/></g>
<g><path style="opacity:1" fill="#a7a7a7" d="M 100.5,162.5 C 103.518,162.335 106.518,162.502 109.5,163C 110.883,164.271 111.883,165.771 112.5,167.5C 113.997,176.334 110.33,180.334 101.5,179.5C 99.9891,178.498 98.3224,177.831 96.5,177.5C 96.3259,175.139 95.9926,172.806 95.5,170.5C 95.6516,166.859 97.3182,164.193 100.5,162.5 Z"/></g>
<g><path style="opacity:1" fill="#d0d0d0" d="M 101.5,165.5 C 103.467,165.261 105.301,165.594 107,166.5C 107.784,169.76 107.617,172.927 106.5,176C 101.473,177.313 99.1398,175.313 99.5,170C 99.7586,168.213 100.425,166.713 101.5,165.5 Z"/></g>
<g><path style="opacity:1" fill="#bcbcbc" d="M 88.5,162.5 C 89.8333,162.5 91.1667,162.5 92.5,162.5C 92.5,167.167 92.5,171.833 92.5,176.5C 92.7373,177.791 92.404,178.791 91.5,179.5C 91.5,174.167 91.5,168.833 91.5,163.5C 90.5,163.5 89.5,163.5 88.5,163.5C 88.6655,167.514 88.4988,171.514 88,175.5C 87.2086,174.255 86.7086,172.922 86.5,171.5C 87.1667,168.5 87.8333,165.5 88.5,162.5 Z"/></g>
<g><path style="opacity:1" fill="#b6b6b7" d="M 77.5,162.5 C 79.4147,162.216 81.0813,162.549 82.5,163.5C 80.8333,163.5 79.1667,163.5 77.5,163.5C 77.5,168.5 77.5,173.5 77.5,178.5C 78.5,178.5 79.5,178.5 80.5,178.5C 80.5,178.833 80.5,179.167 80.5,179.5C 79.1667,179.5 77.8333,179.5 76.5,179.5C 76.1778,173.642 76.5111,167.975 77.5,162.5 Z"/></g>
<g><path style="opacity:1" fill="#cacaca" d="M 114.5,165.5 C 116.167,165.5 117.833,165.5 119.5,165.5C 119.5,170.5 119.5,175.5 119.5,180.5C 116.194,181.087 115.194,182.753 116.5,185.5C 115.167,185.5 113.833,185.5 112.5,185.5C 112.297,189.9 110.963,193.9 108.5,197.5C 107.624,197.631 106.957,197.298 106.5,196.5C 107.428,195.232 107.595,193.899 107,192.5C 105.711,194.645 104.878,196.978 104.5,199.5C 102.5,199.5 100.5,199.5 98.5,199.5C 98.5,195.167 98.5,190.833 98.5,186.5C 99.1515,187.091 99.8182,187.757 100.5,188.5C 104.001,185.832 104.334,182.832 101.5,179.5C 110.33,180.334 113.997,176.334 112.5,167.5C 113.317,169.969 113.817,172.635 114,175.5C 114.498,172.183 114.665,168.85 114.5,165.5 Z"/></g>
<g><path style="opacity:1" fill="#a3a3a3" d="M 122.5,162.5 C 124.167,162.5 125.833,162.5 127.5,162.5C 128.091,163.151 128.757,163.818 129.5,164.5C 127.955,165.452 126.288,165.785 124.5,165.5C 124.5,170.5 124.5,175.5 124.5,180.5C 122.833,180.5 121.167,180.5 119.5,180.5C 119.5,175.5 119.5,170.5 119.5,165.5C 117.833,165.5 116.167,165.5 114.5,165.5C 113.596,164.791 113.263,163.791 113.5,162.5C 116.5,162.5 119.5,162.5 122.5,162.5 Z"/></g>
<g><path style="opacity:1" fill="#dfdfe1" d="M 57.5,159.5 C 59.8333,159.5 62.1667,159.5 64.5,159.5C 64.6641,162.187 64.4974,164.854 64,167.5C 63.7978,165.744 63.2978,164.078 62.5,162.5C 60.3711,164.656 58.0378,166.323 55.5,167.5C 55.5,169.5 55.5,171.5 55.5,173.5C 47.4318,173.509 39.4318,174.176 31.5,175.5C 31.5,177.167 31.5,178.833 31.5,180.5C 28.5,180.5 25.5,180.5 22.5,180.5C 22.6567,179.127 22.49,177.793 22,176.5C 21.6667,178.833 21.3333,181.167 21,183.5C 20.2432,181.685 19.4098,180.019 18.5,178.5C 18.1924,176.076 18.5258,173.743 19.5,171.5C 21.0193,176.564 22.186,176.23 23,170.5C 24.1803,171.684 25.6803,172.351 27.5,172.5C 34.0663,170.846 40.7329,170.179 47.5,170.5C 47.5,167.833 47.5,165.167 47.5,162.5C 50.1873,162.664 52.854,162.497 55.5,162C 56.3805,161.292 57.0472,160.458 57.5,159.5 Z"/></g>
<g><path style="opacity:1" fill="#d0d0d0" d="M 113.5,142.5 C 115.167,142.5 116.833,142.5 118.5,142.5C 118.5,145.833 118.5,149.167 118.5,152.5C 118.5,153.833 118.5,155.167 118.5,156.5C 121.3,157.413 122.633,159.413 122.5,162.5C 119.5,162.5 116.5,162.5 113.5,162.5C 113.263,163.791 113.596,164.791 114.5,165.5C 114.665,168.85 114.498,172.183 114,175.5C 113.817,172.635 113.317,169.969 112.5,167.5C 111.883,165.771 110.883,164.271 109.5,163C 106.518,162.502 103.518,162.335 100.5,162.5C 102.948,161.471 105.614,160.804 108.5,160.5C 112.859,163.196 113.526,162.196 110.5,157.5C 111.325,156.614 112.325,156.281 113.5,156.5C 114.837,157.751 114.837,156.251 113.5,152C 111.934,151.7 110.601,152.2 109.5,153.5C 110.455,151.254 111.122,148.921 111.5,146.5C 113.176,145.817 113.843,144.483 113.5,142.5 Z"/></g>
<g><path style="opacity:1" fill="#d4d4d4" d="M 100.5,162.5 C 97.3182,164.193 95.6516,166.859 95.5,170.5C 94.193,172.223 94.193,174.057 95.5,176C 94.552,176.483 93.552,176.649 92.5,176.5C 92.5,171.833 92.5,167.167 92.5,162.5C 91.1667,162.5 89.8333,162.5 88.5,162.5C 89.3984,161.842 90.3984,161.176 91.5,160.5C 90.9747,159.808 90.3081,159.308 89.5,159C 90.7659,158.691 91.9326,158.191 93,157.5C 93.3333,157.833 93.6667,158.167 94,158.5C 94.4955,156.527 94.6621,154.527 94.5,152.5C 97.9503,156.295 102.284,157.461 107.5,156C 108.756,155.583 109.423,154.75 109.5,153.5C 110.601,152.2 111.934,151.7 113.5,152C 114.837,156.251 114.837,157.751 113.5,156.5C 112.325,156.281 111.325,156.614 110.5,157.5C 113.526,162.196 112.859,163.196 108.5,160.5C 105.614,160.804 102.948,161.471 100.5,162.5 Z"/></g>
<g><path style="opacity:1" fill="#d8d8d8" d="M 96.5,140.5 C 93.3942,143.98 92.7275,147.98 94.5,152.5C 94.6621,154.527 94.4955,156.527 94,158.5C 93.6667,158.167 93.3333,157.833 93,157.5C 91.9326,158.191 90.7659,158.691 89.5,159C 90.3081,159.308 90.9747,159.808 91.5,160.5C 90.3984,161.176 89.3984,161.842 88.5,162.5C 87.8333,165.5 87.1667,168.5 86.5,171.5C 84.9766,168.931 83.6433,166.264 82.5,163.5C 81.0813,162.549 79.4147,162.216 77.5,162.5C 79.0419,161.837 80.7086,161.17 82.5,160.5C 80.6675,159.752 79.0009,158.752 77.5,157.5C 77.2635,158.247 76.9302,159.08 76.5,160C 75.8333,160.667 75.1667,160.667 74.5,160C 75.3366,158.989 75.67,157.822 75.5,156.5C 76.8333,156.5 78.1667,156.5 79.5,156.5C 79.5,154.167 79.5,151.833 79.5,149.5C 81.5,149.5 83.5,149.5 85.5,149.5C 85.5,151.833 85.5,154.167 85.5,156.5C 87.5,156.5 89.5,156.5 91.5,156.5C 91.8222,150.642 91.4889,144.975 90.5,139.5C 89.1667,139.5 87.8333,139.5 86.5,139.5C 86.5,141.5 86.5,143.5 86.5,145.5C 84.1667,145.5 81.8333,145.5 79.5,145.5C 79.5,143.833 79.5,142.167 79.5,140.5C 83.7722,146.316 85.7722,145.649 85.5,138.5C 88.0241,138.571 90.0241,137.571 91.5,135.5C 92.1924,136.025 92.6924,136.692 93,137.5C 93.3333,137.167 93.6667,136.833 94,136.5C 94.1216,138.437 94.955,139.77 96.5,140.5 Z"/></g>
<g><path style="opacity:1" fill="#dbdbdc" d="M 77.5,123.5 C 82.3371,124.54 87.0038,125.873 91.5,127.5C 91.8445,131.534 93.8445,133.201 97.5,132.5C 95.2367,134.892 94.9034,137.559 96.5,140.5C 94.955,139.77 94.1216,138.437 94,136.5C 93.6667,136.833 93.3333,137.167 93,137.5C 92.6924,136.692 92.1924,136.025 91.5,135.5C 90.0241,137.571 88.0241,138.571 85.5,138.5C 85.7722,145.649 83.7722,146.316 79.5,140.5C 78.4324,139.566 77.099,139.232 75.5,139.5C 75.5,145.167 75.5,150.833 75.5,156.5C 75.67,157.822 75.3366,158.989 74.5,160C 75.1667,160.667 75.8333,160.667 76.5,160C 76.9302,159.08 77.2635,158.247 77.5,157.5C 79.0009,158.752 80.6675,159.752 82.5,160.5C 80.7086,161.17 79.0419,161.837 77.5,162.5C 76.5111,167.975 76.1778,173.642 76.5,179.5C 77.6256,180.858 77.6256,182.192 76.5,183.5C 75.914,183.291 75.414,182.957 75,182.5C 73.513,183.253 73.3463,184.086 74.5,185C 71.0992,184.734 69.4326,186.234 69.5,189.5C 69.6716,190.492 69.3382,191.158 68.5,191.5C 66.8762,191.36 65.7096,192.027 65,193.5C 64.5357,192.906 64.369,192.239 64.5,191.5C 64.366,189.708 64.6993,188.042 65.5,186.5C 61.3046,185.003 59.3046,186.669 59.5,191.5C 58.5489,192.919 58.2155,194.585 58.5,196.5C 57.5,196.5 56.5,196.5 55.5,196.5C 54.8333,193.167 54.1667,189.833 53.5,186.5C 51.8333,186.5 50.1667,186.5 48.5,186.5C 48.6287,188.216 48.962,189.883 49.5,191.5C 49.1077,193.179 48.6077,194.846 48,196.5C 47.6174,195.944 47.1174,195.611 46.5,195.5C 45.2163,192.598 44.2163,189.598 43.5,186.5C 41.1667,186.5 38.8333,186.5 36.5,186.5C 36.2525,189.854 35.2525,192.854 33.5,195.5C 27.5444,194.656 21.5444,194.656 15.5,195.5C 15.2457,187.277 15.9124,179.277 17.5,171.5C 17.1569,174.653 17.4902,176.987 18.5,178.5C 19.4098,180.019 20.2432,181.685 21,183.5C 21.3333,181.167 21.6667,178.833 22,176.5C 22.49,177.793 22.6567,179.127 22.5,180.5C 25.5,180.5 28.5,180.5 31.5,180.5C 31.5,178.833 31.5,177.167 31.5,175.5C 39.4318,174.176 47.4318,173.509 55.5,173.5C 55.5,171.5 55.5,169.5 55.5,167.5C 58.0378,166.323 60.3711,164.656 62.5,162.5C 63.2978,164.078 63.7978,165.744 64,167.5C 64.4974,164.854 64.6641,162.187 64.5,159.5C 62.1667,159.5 59.8333,159.5 57.5,159.5C 55.9719,159.483 55.4719,158.816 56,157.5C 57.7261,158.576 59.5594,158.743 61.5,158C 60.2625,157.768 59.2625,157.268 58.5,156.5C 60.099,156.768 61.4324,156.434 62.5,155.5C 62.5,153.5 62.5,151.5 62.5,149.5C 65.4475,149.777 68.2809,149.444 71,148.5C 73.199,144.978 72.699,141.978 69.5,139.5C 71.2684,135.956 72.1018,131.956 72,127.5C 72.6667,126.833 73.3333,126.167 74,125.5C 77.3458,128.247 78.5125,127.58 77.5,123.5 Z"/></g>
<g><path style="opacity:1" fill="#b6b6b6" d="M 65.5,186.5 C 64.5041,186.414 63.6708,186.748 63,187.5C 62.6667,188.833 62.3333,190.167 62,191.5C 61.6667,190.833 61.3333,190.167 61,189.5C 60.7216,190.416 60.2216,191.082 59.5,191.5C 59.3046,186.669 61.3046,185.003 65.5,186.5 Z"/></g>
<g><path style="opacity:1" fill="#aaaaaa" d="M 68.5,139.5 C 68.8333,139.5 69.1667,139.5 69.5,139.5C 72.699,141.978 73.199,144.978 71,148.5C 68.2809,149.444 65.4475,149.777 62.5,149.5C 62.5,151.5 62.5,153.5 62.5,155.5C 61.1667,155.5 59.8333,155.5 58.5,155.5C 58.5,150.167 58.5,144.833 58.5,139.5C 59.8333,139.5 61.1667,139.5 62.5,139.5C 62.5,142.167 62.5,144.833 62.5,147.5C 64.1667,147.5 65.8333,147.5 67.5,147.5C 68.3203,143.842 66.9869,141.509 63.5,140.5C 65.0453,139.548 66.712,139.215 68.5,139.5 Z"/></g>
<g><path style="opacity:1" fill="#c8c8c8" d="M 90.5,139.5 C 91.4889,144.975 91.8222,150.642 91.5,156.5C 89.5,156.5 87.5,156.5 85.5,156.5C 85.5,154.167 85.5,151.833 85.5,149.5C 83.5,149.5 81.5,149.5 79.5,149.5C 81.6074,148.532 83.9407,148.198 86.5,148.5C 86.5,150.833 86.5,153.167 86.5,155.5C 87.8333,155.5 89.1667,155.5 90.5,155.5C 90.5,150.167 90.5,144.833 90.5,139.5 Z"/></g>
<g><path style="opacity:1" fill="#a8a8a8" d="M 79.5,140.5 C 79.5,142.167 79.5,143.833 79.5,145.5C 81.8333,145.5 84.1667,145.5 86.5,145.5C 86.5,143.5 86.5,141.5 86.5,139.5C 87.8333,139.5 89.1667,139.5 90.5,139.5C 90.5,144.833 90.5,150.167 90.5,155.5C 89.1667,155.5 87.8333,155.5 86.5,155.5C 86.5,153.167 86.5,150.833 86.5,148.5C 83.9407,148.198 81.6074,148.532 79.5,149.5C 79.5,151.833 79.5,154.167 79.5,156.5C 78.1667,156.5 76.8333,156.5 75.5,156.5C 75.5,150.833 75.5,145.167 75.5,139.5C 77.099,139.232 78.4324,139.566 79.5,140.5 Z"/></g>
<g><path style="opacity:1" fill="#a8a8a8" d="M 98.5,139.5 C 101.518,139.335 104.518,139.502 107.5,140C 108.977,141.812 110.31,143.645 111.5,145.5C 111.5,145.833 111.5,146.167 111.5,146.5C 111.122,148.921 110.455,151.254 109.5,153.5C 109.423,154.75 108.756,155.583 107.5,156C 102.284,157.461 97.9503,156.295 94.5,152.5C 92.7275,147.98 93.3942,143.98 96.5,140.5C 97.1667,140.167 97.8333,139.833 98.5,139.5 Z"/></g>
<g><path style="opacity:1" fill="#bfbfbf" d="M 106.5,143.5 C 104.287,142.395 102.12,142.395 100,143.5C 99.502,146.482 99.3354,149.482 99.5,152.5C 97.0757,149.396 96.909,146.062 99,142.5C 100.062,141.903 101.228,141.57 102.5,141.5C 104.355,141.34 105.688,142.007 106.5,143.5 Z"/></g>
<g><path style="opacity:1" fill="#cfcfcf" d="M 68.5,139.5 C 66.712,139.215 65.0453,139.548 63.5,140.5C 66.9869,141.509 68.3203,143.842 67.5,147.5C 65.8333,147.5 64.1667,147.5 62.5,147.5C 62.5,144.833 62.5,142.167 62.5,139.5C 61.1667,139.5 59.8333,139.5 58.5,139.5C 58.5,144.833 58.5,150.167 58.5,155.5C 59.8333,155.5 61.1667,155.5 62.5,155.5C 61.4324,156.434 60.099,156.768 58.5,156.5C 57.5104,150.69 57.1771,144.69 57.5,138.5C 61.3714,138.185 65.0381,138.518 68.5,139.5 Z"/></g>
<g><path style="opacity:1" fill="#adadad" d="M 146.5,143.5 C 147.641,146.64 147.808,149.973 147,153.5C 146.184,154.823 145.017,155.489 143.5,155.5C 146.231,152.073 147.231,148.073 146.5,143.5 Z"/></g>
<g><path style="opacity:1" fill="#9c9c9c" d="M 141.5,139.5 C 144.038,139.831 145.704,141.164 146.5,143.5C 147.231,148.073 146.231,152.073 143.5,155.5C 140.465,156.734 137.465,156.734 134.5,155.5C 133.71,154.206 132.71,153.039 131.5,152C 132.577,151.53 133.577,151.697 134.5,152.5C 136.808,153.714 139.141,153.714 141.5,152.5C 142.407,149.579 142.74,146.579 142.5,143.5C 143.043,143.44 143.376,143.107 143.5,142.5C 141.726,141.813 140.059,140.98 138.5,140C 139.448,139.517 140.448,139.351 141.5,139.5 Z"/></g>
<g><path style="opacity:1" fill="#a3a3a3" d="M 135.5,138.5 C 137.735,138.205 139.735,138.539 141.5,139.5C 140.448,139.351 139.448,139.517 138.5,140C 140.059,140.98 141.726,141.813 143.5,142.5C 143.376,143.107 143.043,143.44 142.5,143.5C 139.959,142.351 137.459,142.351 135,143.5C 134.502,146.482 134.335,149.482 134.5,152.5C 133.577,151.697 132.577,151.53 131.5,152C 132.71,153.039 133.71,154.206 134.5,155.5C 133.391,155.443 132.391,155.11 131.5,154.5C 127.863,147.798 129.196,142.464 135.5,138.5 Z"/></g>
<g><path style="opacity:1" fill="#bababa" d="M 128.5,142.5 C 127.081,143.451 125.415,143.784 123.5,143.5C 123.5,147.833 123.5,152.167 123.5,156.5C 121.833,156.5 120.167,156.5 118.5,156.5C 118.5,155.167 118.5,153.833 118.5,152.5C 119.404,153.209 119.737,154.209 119.5,155.5C 120.5,155.5 121.5,155.5 122.5,155.5C 122.5,151.167 122.5,146.833 122.5,142.5C 124.5,142.5 126.5,142.5 128.5,142.5 Z"/></g>
<g><path style="opacity:1" fill="#a4a4a4" d="M 128.5,139.5 C 128.5,140.5 128.5,141.5 128.5,142.5C 126.5,142.5 124.5,142.5 122.5,142.5C 122.5,146.833 122.5,151.167 122.5,155.5C 121.5,155.5 120.5,155.5 119.5,155.5C 119.737,154.209 119.404,153.209 118.5,152.5C 118.5,149.167 118.5,145.833 118.5,142.5C 116.833,142.5 115.167,142.5 113.5,142.5C 113.5,141.5 113.5,140.5 113.5,139.5C 118.5,139.5 123.5,139.5 128.5,139.5 Z"/></g>
<g><path style="opacity:1" fill="#bfbfbf" d="M 142.5,143.5 C 142.74,146.579 142.407,149.579 141.5,152.5C 139.141,153.714 136.808,153.714 134.5,152.5C 134.335,149.482 134.502,146.482 135,143.5C 137.459,142.351 139.959,142.351 142.5,143.5 Z"/></g>
<g><path style="opacity:1" fill="#d5d5d5" d="M 106.5,143.5 C 106.664,146.187 106.497,148.854 106,151.5C 103.984,153.608 101.817,153.942 99.5,152.5C 99.3354,149.482 99.502,146.482 100,143.5C 102.12,142.395 104.287,142.395 106.5,143.5 Z"/></g>
<g><path style="opacity:1" fill="#b7b7b7" d="M 112.5,138.5 C 117.5,138.5 122.5,138.5 127.5,138.5C 128.167,138.5 128.5,138.833 128.5,139.5C 123.5,139.5 118.5,139.5 113.5,139.5C 113.5,140.5 113.5,141.5 113.5,142.5C 112.566,141.432 112.232,140.099 112.5,138.5 Z"/></g>
<g><path style="opacity:1" fill="#c3c3c3" d="M 98.5,139.5 C 101.64,138.359 104.973,138.192 108.5,139C 110.919,140.509 111.919,142.675 111.5,145.5C 110.31,143.645 108.977,141.812 107.5,140C 104.518,139.502 101.518,139.335 98.5,139.5 Z"/></g>
<g><path style="opacity:1" fill="#c5c5c5" d="M 63.5,105.5 C 63.8333,106.167 64.1667,106.833 64.5,107.5C 64.1667,108.833 63.8333,110.167 63.5,111.5C 56.0232,114.032 49.6898,118.032 44.5,123.5C 41.1427,125.803 37.976,128.47 35,131.5C 30.4752,136.553 26.9752,142.219 24.5,148.5C 20.4323,155.525 18.099,163.192 17.5,171.5C 15.9124,179.277 15.2457,187.277 15.5,195.5C 15.5,198.167 15.5,200.833 15.5,203.5C 16.245,208.891 17.245,214.224 18.5,219.5C 17.5,219.5 16.5,219.5 15.5,219.5C 13.7746,215.657 12.4413,211.657 11.5,207.5C 10.8345,199.517 10.5012,191.517 10.5,183.5C 11.2827,179.307 11.9494,174.973 12.5,170.5C 16.7164,142.321 31.3831,121.988 56.5,109.5C 58.4352,108.85 60.4352,108.517 62.5,108.5C 62.2627,107.209 62.596,106.209 63.5,105.5 Z"/></g>
<g><path style="opacity:1" fill="#d7d6d6" d="M 91.5,127.5 C 98.8057,128.34 106.139,128.34 113.5,127.5C 114.761,131.276 114.427,134.943 112.5,138.5C 112.232,140.099 112.566,141.432 113.5,142.5C 113.843,144.483 113.176,145.817 111.5,146.5C 111.5,146.167 111.5,145.833 111.5,145.5C 111.919,142.675 110.919,140.509 108.5,139C 104.973,138.192 101.64,138.359 98.5,139.5C 97.8333,139.833 97.1667,140.167 96.5,140.5C 94.9034,137.559 95.2367,134.892 97.5,132.5C 93.8445,133.201 91.8445,131.534 91.5,127.5 Z"/></g>
<g><path style="opacity:1" fill="#d2d1d1" d="M 127.5,121.5 C 127.472,123.582 128.139,125.416 129.5,127C 128.296,128.353 127.629,130.019 127.5,132C 128.027,134.371 128.027,136.538 127.5,138.5C 122.5,138.5 117.5,138.5 112.5,138.5C 114.427,134.943 114.761,131.276 113.5,127.5C 118.323,125.838 122.99,123.838 127.5,121.5 Z"/></g>
<g><path style="opacity:1" fill="#e7e7e7" d="M 24.5,148.5 C 26.9752,142.219 30.4752,136.553 35,131.5C 37.976,128.47 41.1427,125.803 44.5,123.5C 46.5405,122.481 48.5405,122.481 50.5,123.5C 48.725,124.957 46.725,126.124 44.5,127C 45.448,127.483 46.448,127.649 47.5,127.5C 47.5,130.167 47.5,132.833 47.5,135.5C 44.1157,136.674 40.7823,138.174 37.5,140C 36.6634,141.011 36.33,142.178 36.5,143.5C 37.5,143.5 38.5,143.5 39.5,143.5C 37.9754,146.703 35.6421,149.37 32.5,151.5C 31.2096,149.343 30.3763,147.01 30,144.5C 28.8362,146.649 27.6695,148.815 26.5,151C 24.9387,151.188 24.272,150.355 24.5,148.5 Z"/></g>
<g><path style="opacity:1" fill="#c9c6c5" d="M 64.5,107.5 C 66.4728,110.139 68.8061,112.473 71.5,114.5C 82.8183,124.759 96.1517,128.259 111.5,125C 116.235,123.257 120.902,121.423 125.5,119.5C 128.358,117.876 129.025,118.543 127.5,121.5C 122.99,123.838 118.323,125.838 113.5,127.5C 106.139,128.34 98.8057,128.34 91.5,127.5C 87.0038,125.873 82.3371,124.54 77.5,123.5C 73.4278,118.758 68.7611,114.758 63.5,111.5C 63.8333,110.167 64.1667,108.833 64.5,107.5 Z"/></g>
<g><path style="opacity:1" fill="#cbcaca" d="M 131.5,115.5 C 131.418,118.17 132.585,118.17 135,115.5C 135.117,116.95 134.95,118.45 134.5,120C 134.743,125.945 135.743,131.611 137.5,137C 136.584,137.278 135.918,137.778 135.5,138.5C 129.196,142.464 127.863,147.798 131.5,154.5C 130.77,155.712 129.77,156.712 128.5,157.5C 133.558,159.768 133.225,161.435 127.5,162.5C 125.833,162.5 124.167,162.5 122.5,162.5C 122.633,159.413 121.3,157.413 118.5,156.5C 120.167,156.5 121.833,156.5 123.5,156.5C 123.5,152.167 123.5,147.833 123.5,143.5C 125.415,143.784 127.081,143.451 128.5,142.5C 128.5,141.5 128.5,140.5 128.5,139.5C 128.5,138.833 128.167,138.5 127.5,138.5C 128.027,136.538 128.027,134.371 127.5,132C 127.629,130.019 128.296,128.353 129.5,127C 128.139,125.416 127.472,123.582 127.5,121.5C 129.025,118.543 128.358,117.876 125.5,119.5C 127.264,117.879 129.264,116.546 131.5,115.5 Z"/></g>
<g><path style="opacity:1" fill="#e9e4e1" d="M 142.5,95.5 C 142.833,95.5 143.167,95.5 143.5,95.5C 144.167,95.5 144.833,95.5 145.5,95.5C 144.432,100.084 142.432,104.084 139.5,107.5C 136.548,109.785 133.882,112.452 131.5,115.5C 129.264,116.546 127.264,117.879 125.5,119.5C 120.902,121.423 116.235,123.257 111.5,125C 96.1517,128.259 82.8183,124.759 71.5,114.5C 72.1515,113.909 72.8182,113.243 73.5,112.5C 75.3198,113.883 77.3198,114.883 79.5,115.5C 84.5111,115.334 89.5111,115.501 94.5,116C 95.1667,117 95.8333,118 96.5,119C 101.22,119.221 105.887,119.721 110.5,120.5C 111.452,118.955 111.785,117.288 111.5,115.5C 114.247,115.187 116.914,115.52 119.5,116.5C 121.116,120.276 122.116,119.942 122.5,115.5C 124.167,115.5 125.833,115.5 127.5,115.5C 125.566,112.728 126.233,110.895 129.5,110C 128.833,109.333 128.167,108.667 127.5,108C 129.515,107.576 131.349,106.742 133,105.5C 134.548,106.684 136.048,106.517 137.5,105C 137.167,104.667 136.833,104.333 136.5,104C 137.448,103.517 138.448,103.351 139.5,103.5C 140.026,100.646 141.026,97.9794 142.5,95.5 Z"/></g>
<g><path style="opacity:1" fill="#e2e2e3" d="M 63.5,111.5 C 68.7611,114.758 73.4278,118.758 77.5,123.5C 78.5125,127.58 77.3458,128.247 74,125.5C 73.3333,126.167 72.6667,126.833 72,127.5C 72.1018,131.956 71.2684,135.956 69.5,139.5C 69.1667,139.5 68.8333,139.5 68.5,139.5C 65.0381,138.518 61.3714,138.185 57.5,138.5C 57.1771,144.69 57.5104,150.69 58.5,156.5C 59.2625,157.268 60.2625,157.768 61.5,158C 59.5594,158.743 57.7261,158.576 56,157.5C 55.4719,158.816 55.9719,159.483 57.5,159.5C 57.0472,160.458 56.3805,161.292 55.5,162C 52.854,162.497 50.1873,162.664 47.5,162.5C 47.5,165.167 47.5,167.833 47.5,170.5C 40.7329,170.179 34.0663,170.846 27.5,172.5C 25.6803,172.351 24.1803,171.684 23,170.5C 22.186,176.23 21.0193,176.564 19.5,171.5C 18.5258,173.743 18.1924,176.076 18.5,178.5C 17.4902,176.987 17.1569,174.653 17.5,171.5C 18.099,163.192 20.4323,155.525 24.5,148.5C 24.272,150.355 24.9387,151.188 26.5,151C 27.6695,148.815 28.8362,146.649 30,144.5C 30.3763,147.01 31.2096,149.343 32.5,151.5C 35.6421,149.37 37.9754,146.703 39.5,143.5C 38.5,143.5 37.5,143.5 36.5,143.5C 36.33,142.178 36.6634,141.011 37.5,140C 40.7823,138.174 44.1157,136.674 47.5,135.5C 47.5,132.833 47.5,130.167 47.5,127.5C 46.448,127.649 45.448,127.483 44.5,127C 46.725,126.124 48.725,124.957 50.5,123.5C 48.5405,122.481 46.5405,122.481 44.5,123.5C 49.6898,118.032 56.0232,114.032 63.5,111.5 Z"/></g>
<g><path style="opacity:1" fill="#c3c3c3" d="M 145.5,107.5 C 156.469,111.812 166.135,118.146 174.5,126.5C 181.388,134.977 186.888,144.311 191,154.5C 192.673,162.866 194.34,171.199 196,179.5C 196.961,189.946 196.294,200.279 194,210.5C 192.552,217.424 188.719,222.424 182.5,225.5C 178.865,226.091 175.198,226.424 171.5,226.5C 154.069,224.655 136.736,222.155 119.5,219C 95.0812,217.959 71.0812,220.626 47.5,227C 38.3622,229.246 29.3622,228.913 20.5,226C 19.6195,225.292 18.9528,224.458 18.5,223.5C 18.5,222.5 18.5,221.5 18.5,220.5C 21.1871,220.341 23.5204,221.175 25.5,223C 32.8258,223.5 40.1591,223.666 47.5,223.5C 47.5,222.5 47.5,221.5 47.5,220.5C 55.6632,219.312 63.6632,217.979 71.5,216.5C 74.1873,216.664 76.854,216.497 79.5,216C 82.8153,213.586 86.4819,211.919 90.5,211C 91.5832,208.944 93.2499,207.611 95.5,207C 94.8333,206.667 94.1667,206.333 93.5,206C 94.756,205.583 95.4226,204.75 95.5,203.5C 98.8333,203.5 102.167,203.5 105.5,203.5C 105.5,202.5 105.5,201.5 105.5,200.5C 105.5,199.833 105.167,199.5 104.5,199.5C 104.878,196.978 105.711,194.645 107,192.5C 107.595,193.899 107.428,195.232 106.5,196.5C 106.957,197.298 107.624,197.631 108.5,197.5C 107.85,199.435 107.517,201.435 107.5,203.5C 108.833,203.5 110.167,203.5 111.5,203.5C 111.5,202.5 111.5,201.5 111.5,200.5C 114.167,200.5 116.833,200.5 119.5,200.5C 119.5,201.5 119.5,202.5 119.5,203.5C 120.833,203.5 122.167,203.5 123.5,203.5C 122.587,197.675 121.087,192.009 119,186.5C 118.329,185.748 117.496,185.414 116.5,185.5C 115.194,182.753 116.194,181.087 119.5,180.5C 121.167,180.5 122.833,180.5 124.5,180.5C 124.5,175.5 124.5,170.5 124.5,165.5C 126.288,165.785 127.955,165.452 129.5,164.5C 128.757,163.818 128.091,163.151 127.5,162.5C 133.225,161.435 133.558,159.768 128.5,157.5C 129.77,156.712 130.77,155.712 131.5,154.5C 132.391,155.11 133.391,155.443 134.5,155.5C 137.465,156.734 140.465,156.734 143.5,155.5C 145.017,155.489 146.184,154.823 147,153.5C 147.808,149.973 147.641,146.64 146.5,143.5C 145.704,141.164 144.038,139.831 141.5,139.5C 139.735,138.539 137.735,138.205 135.5,138.5C 135.918,137.778 136.584,137.278 137.5,137C 135.743,131.611 134.743,125.945 134.5,120C 134.95,118.45 135.117,116.95 135,115.5C 132.585,118.17 131.418,118.17 131.5,115.5C 133.882,112.452 136.548,109.785 139.5,107.5C 141.499,106.143 142.665,106.81 143,109.5C 143.417,108.244 144.25,107.577 145.5,107.5 Z"/></g>
<g><path style="opacity:1" fill="#acacac" d="M 170.5,195.5 C 168.735,196.461 166.735,196.795 164.5,196.5C 164.5,197.5 164.5,198.5 164.5,199.5C 167.059,199.198 169.393,199.532 171.5,200.5C 168.833,200.5 166.167,200.5 163.5,200.5C 163.5,198.833 163.5,197.167 163.5,195.5C 165.833,195.5 168.167,195.5 170.5,195.5 Z"/></g>
<g><path style="opacity:1" fill="#9c9c9c" d="M 159.5,186.5 C 163.226,186.177 166.893,186.511 170.5,187.5C 168.257,188.474 165.924,188.808 163.5,188.5C 163.232,190.099 163.566,191.432 164.5,192.5C 166.5,192.5 168.5,192.5 170.5,192.5C 170.5,193.5 170.5,194.5 170.5,195.5C 168.167,195.5 165.833,195.5 163.5,195.5C 163.5,197.167 163.5,198.833 163.5,200.5C 166.167,200.5 168.833,200.5 171.5,200.5C 167.971,202.423 163.971,203.089 159.5,202.5C 159.5,197.167 159.5,191.833 159.5,186.5 Z"/></g>
<g><path style="opacity:1" fill="#a9a9a9" d="M 149.5,199.5 C 152.167,199.5 154.833,199.5 157.5,199.5C 157.5,200.833 157.5,202.167 157.5,203.5C 153.167,203.5 148.833,203.5 144.5,203.5C 144.5,197.5 144.5,191.5 144.5,185.5C 146.167,185.5 147.833,185.5 149.5,185.5C 149.5,190.167 149.5,194.833 149.5,199.5 Z"/></g>
<g><path style="opacity:1" fill="#9d9d9d" d="M 149.5,199.5 C 149.369,200.239 149.536,200.906 150,201.5C 152.139,200.231 154.305,200.231 156.5,201.5C 152.893,202.489 149.226,202.823 145.5,202.5C 145.5,197.167 145.5,191.833 145.5,186.5C 146.5,186.5 147.5,186.5 148.5,186.5C 148.182,191.032 148.515,195.366 149.5,199.5 Z"/></g>
<g><path style="opacity:1" fill="#9e9e9e" d="M 126.5,186.5 C 130.182,186.335 133.848,186.501 137.5,187C 138.728,187.779 139.728,188.779 140.5,190C 140.04,193.785 139.873,197.618 140,201.5C 136.078,203.312 131.911,203.979 127.5,203.5C 126.866,197.855 126.532,192.189 126.5,186.5 Z"/></g>
<g><path style="opacity:1" fill="#bdbdbd" d="M 131.5,195.5 C 133.167,195.5 134.833,195.5 136.5,195.5C 137.167,199.5 135.5,201.167 131.5,200.5C 131.5,198.833 131.5,197.167 131.5,195.5 Z"/></g>
<g><path style="opacity:1" fill="#bcbcbc" d="M 131.5,188.5 C 132.833,188.5 134.167,188.5 135.5,188.5C 135.5,189.833 135.5,191.167 135.5,192.5C 134.167,192.5 132.833,192.5 131.5,192.5C 131.5,191.167 131.5,189.833 131.5,188.5 Z"/></g>
<g><path style="opacity:1" fill="#acacac" d="M 159.5,186.5 C 163.298,185.517 167.298,185.183 171.5,185.5C 171.5,186.833 171.5,188.167 171.5,189.5C 169.167,189.5 166.833,189.5 164.5,189.5C 164.5,190.5 164.5,191.5 164.5,192.5C 163.566,191.432 163.232,190.099 163.5,188.5C 165.924,188.808 168.257,188.474 170.5,187.5C 166.893,186.511 163.226,186.177 159.5,186.5 Z"/></g>
<g><path style="opacity:1" fill="#ece4de" d="M 142.5,95.5 C 141.026,97.9794 140.026,100.646 139.5,103.5C 138.448,103.351 137.448,103.517 136.5,104C 136.833,104.333 137.167,104.667 137.5,105C 136.048,106.517 134.548,106.684 133,105.5C 131.349,106.742 129.515,107.576 127.5,108C 128.167,108.667 128.833,109.333 129.5,110C 126.233,110.895 125.566,112.728 127.5,115.5C 125.833,115.5 124.167,115.5 122.5,115.5C 122.116,119.942 121.116,120.276 119.5,116.5C 116.914,115.52 114.247,115.187 111.5,115.5C 111.785,117.288 111.452,118.955 110.5,120.5C 105.887,119.721 101.22,119.221 96.5,119C 95.8333,118 95.1667,117 94.5,116C 89.5111,115.501 84.5111,115.334 79.5,115.5C 79.4606,114.417 79.1272,113.417 78.5,112.5C 84.0522,111.812 89.5522,111.146 95,110.5C 95.4993,105.511 95.6659,100.511 95.5,95.5C 111.199,95.1855 126.866,95.1855 142.5,95.5 Z"/></g>
<g><path style="opacity:1" fill="#e6e6e4" d="M 153.5,63.5 C 154.317,65.9686 154.817,68.6353 155,71.5C 156.041,61.383 156.875,61.2163 157.5,71C 157.333,73.5 157.167,76 157,78.5C 156.333,77.1667 155.667,75.8333 155,74.5C 154.177,78.1664 155.677,79.8331 159.5,79.5C 159.5,84.8333 159.5,90.1667 159.5,95.5C 156.455,95.7036 153.621,95.7036 151,95.5C 150.71,97.0441 150.044,98.3774 149,99.5C 148.536,98.9056 148.369,98.2389 148.5,97.5C 152.381,86.5997 154.048,75.2663 153.5,63.5 Z"/></g>
<g><path style="opacity:1" fill="#ebe4e1" d="M 138.5,35.5 C 139.794,36.2899 140.961,37.2899 142,38.5C 144.449,44.0959 146.616,49.7626 148.5,55.5C 148.404,59.3107 147.738,59.3107 146.5,55.5C 145.319,57.1353 145.319,58.802 146.5,60.5C 146.081,61.6721 145.415,62.6721 144.5,63.5C 143.664,74.247 143.33,84.9136 143.5,95.5C 143.167,95.5 142.833,95.5 142.5,95.5C 126.866,95.1855 111.199,95.1855 95.5,95.5C 95.6659,100.511 95.4993,105.511 95,110.5C 89.5522,111.146 84.0522,111.812 78.5,112.5C 79.1272,113.417 79.4606,114.417 79.5,115.5C 77.3198,114.883 75.3198,113.883 73.5,112.5C 72.8182,113.243 72.1515,113.909 71.5,114.5C 68.8061,112.473 66.4728,110.139 64.5,107.5C 64.1667,106.833 63.8333,106.167 63.5,105.5C 63.6145,99.7488 63.6145,93.7488 63.5,87.5C 71.5,87.5 79.5,87.5 87.5,87.5C 87.5,88.8333 87.5,90.1667 87.5,91.5C 92.8333,91.5 98.1667,91.5 103.5,91.5C 103.5,88.8333 103.5,86.1667 103.5,83.5C 106.167,83.5 108.833,83.5 111.5,83.5C 111.238,82.0222 111.571,80.6888 112.5,79.5C 113.425,78.3595 114.259,78.3595 115,79.5C 115.497,76.854 115.664,74.1873 115.5,71.5C 116.833,71.5 118.167,71.5 119.5,71.5C 119.5,66.1667 119.5,60.8333 119.5,55.5C 121.5,55.5 123.5,55.5 125.5,55.5C 124.964,52.3019 125.631,49.6353 127.5,47.5C 130.29,47.7508 133.29,47.7508 136.5,47.5C 135.588,43.8694 135.421,40.2027 136,36.5C 136.671,35.7476 137.504,35.4142 138.5,35.5 Z"/></g>
<g><path style="opacity:1" fill="#c8c7c5" d="M 153.5,63.5 C 154.048,75.2663 152.381,86.5997 148.5,97.5C 146.917,100.112 145.25,102.779 143.5,105.5C 144.243,106.182 144.909,106.849 145.5,107.5C 144.25,107.577 143.417,108.244 143,109.5C 142.665,106.81 141.499,106.143 139.5,107.5C 142.432,104.084 144.432,100.084 145.5,95.5C 148.048,92.0039 149.381,88.0039 149.5,83.5C 150.222,83.0825 150.722,82.4158 151,81.5C 151.819,75.3188 151.653,69.3188 150.5,63.5C 150.435,60.5718 149.768,57.9052 148.5,55.5C 146.616,49.7626 144.449,44.0959 142,38.5C 140.961,37.2899 139.794,36.2899 138.5,35.5C 137.5,33.8333 136.167,32.5 134.5,31.5C 132.847,29.0392 130.847,26.8725 128.5,25C 124.15,23.787 120.15,21.9537 116.5,19.5C 108.303,17.5064 99.9698,17.0064 91.5,18C 85.891,19.4711 80.891,21.9711 76.5,25.5C 71.3757,28.6901 66.8757,32.6901 63,37.5C 61.9055,39.0779 61.0722,40.7446 60.5,42.5C 56.153,48.6986 53.653,55.6986 53,63.5C 52.1826,69.0164 52.3493,74.3497 53.5,79.5C 53.9037,89.3903 57.2371,98.057 63.5,105.5C 62.596,106.209 62.2627,107.209 62.5,108.5C 60.4352,108.517 58.4352,108.85 56.5,109.5C 57.4831,108.15 58.8164,107.15 60.5,106.5C 48.4835,85.813 47.3168,64.4796 57,42.5C 76.1392,13.8403 100.973,7.6736 131.5,24C 143.667,34.5028 151,47.6695 153.5,63.5 Z"/></g>
<g><path style="opacity:1" fill="#e9e5e0" d="M 148.5,55.5 C 149.768,57.9052 150.435,60.5718 150.5,63.5C 150.664,70.2022 150.331,76.8689 149.5,83.5C 149.381,88.0039 148.048,92.0039 145.5,95.5C 144.833,95.5 144.167,95.5 143.5,95.5C 143.33,84.9136 143.664,74.247 144.5,63.5C 145.415,62.6721 146.081,61.6721 146.5,60.5C 145.319,58.802 145.319,57.1353 146.5,55.5C 147.738,59.3107 148.404,59.3107 148.5,55.5 Z"/></g>
<g><path style="opacity:1" fill="#d8d7d2" d="M 150.5,63.5 C 151.653,69.3188 151.819,75.3188 151,81.5C 150.722,82.4158 150.222,83.0825 149.5,83.5C 150.331,76.8689 150.664,70.2022 150.5,63.5 Z"/></g>
<g><path style="opacity:1" fill="#ede8e4" d="M 116.5,19.5 C 120.15,21.9537 124.15,23.787 128.5,25C 130.847,26.8725 132.847,29.0392 134.5,31.5C 132.662,31.9769 130.828,32.3103 129,32.5C 128.088,37.4636 127.588,42.4636 127.5,47.5C 125.631,49.6353 124.964,52.3019 125.5,55.5C 123.5,55.5 121.5,55.5 119.5,55.5C 119.5,60.8333 119.5,66.1667 119.5,71.5C 118.167,71.5 116.833,71.5 115.5,71.5C 115.664,74.1873 115.497,76.854 115,79.5C 114.259,78.3595 113.425,78.3595 112.5,79.5C 111.571,80.6888 111.238,82.0222 111.5,83.5C 108.833,83.5 106.167,83.5 103.5,83.5C 103.5,86.1667 103.5,88.8333 103.5,91.5C 98.1667,91.5 92.8333,91.5 87.5,91.5C 87.5,90.1667 87.5,88.8333 87.5,87.5C 79.5,87.5 71.5,87.5 63.5,87.5C 63.6145,93.7488 63.6145,99.7488 63.5,105.5C 57.2371,98.057 53.9037,89.3903 53.5,79.5C 53.3341,74.4889 53.5007,69.4889 54,64.5C 54.3333,64.8333 54.6667,65.1667 55,65.5C 56.9239,61.7962 58.0906,57.7962 58.5,53.5C 59.1924,54.0253 59.6924,54.6919 60,55.5C 60.6667,53.5 61.3333,51.5 62,49.5C 62.994,54.118 63.494,58.7847 63.5,63.5C 66.1667,63.5 68.8333,63.5 71.5,63.5C 71.5,66.8333 71.5,70.1667 71.5,73.5C 79.5682,73.4909 87.5682,72.8243 95.5,71.5C 95.5,68.8333 95.5,66.1667 95.5,63.5C 98.1667,63.5 100.833,63.5 103.5,63.5C 103.478,59.4068 102.811,55.4068 101.5,51.5C 102.167,48.8333 102.833,46.1667 103.5,43.5C 102.833,40.8333 102.167,38.1667 101.5,35.5C 101.833,34.1667 102.167,32.8333 102.5,31.5C 106.019,28.9039 109.352,26.0706 112.5,23C 112.167,22.6667 111.833,22.3333 111.5,22C 113.5,21.6667 115.5,21.3333 117.5,21C 116.944,20.6174 116.611,20.1174 116.5,19.5 Z"/></g>
<g><path style="opacity:1" fill="#e9e6de" d="M 134.5,31.5 C 136.167,32.5 137.5,33.8333 138.5,35.5C 137.504,35.4142 136.671,35.7476 136,36.5C 135.421,40.2027 135.588,43.8694 136.5,47.5C 133.29,47.7508 130.29,47.7508 127.5,47.5C 127.588,42.4636 128.088,37.4636 129,32.5C 130.828,32.3103 132.662,31.9769 134.5,31.5 Z"/></g>
<g><path style="opacity:1" fill="#eeeeec" d="M 60.5,42.5 C 61.0722,40.7446 61.9055,39.0779 63,37.5C 66.8757,32.6901 71.3757,28.6901 76.5,25.5C 77.4959,25.5858 78.3292,25.2524 79,24.5C 79.4966,26.8098 79.6633,29.1432 79.5,31.5C 84.1667,31.5 88.8333,31.5 93.5,31.5C 93.5,36.8333 93.5,42.1667 93.5,47.5C 91.5,47.5 89.5,47.5 87.5,47.5C 87.5,50.1667 87.5,52.8333 87.5,55.5C 82.1667,55.5 76.8333,55.5 71.5,55.5C 71.5,52.8333 71.5,50.1667 71.5,47.5C 68.8333,47.5 66.1667,47.5 63.5,47.5C 63.628,45.3453 63.128,43.3453 62,41.5C 61.6174,42.056 61.1174,42.3893 60.5,42.5 Z"/></g>
<g><path style="opacity:1" fill="#eeebe8" d="M 116.5,19.5 C 116.611,20.1174 116.944,20.6174 117.5,21C 115.5,21.3333 113.5,21.6667 111.5,22C 111.833,22.3333 112.167,22.6667 112.5,23C 109.352,26.0706 106.019,28.9039 102.5,31.5C 102.167,32.8333 101.833,34.1667 101.5,35.5C 102.167,38.1667 102.833,40.8333 103.5,43.5C 102.833,46.1667 102.167,48.8333 101.5,51.5C 102.811,55.4068 103.478,59.4068 103.5,63.5C 100.833,63.5 98.1667,63.5 95.5,63.5C 95.5,66.1667 95.5,68.8333 95.5,71.5C 87.5682,72.8243 79.5682,73.4909 71.5,73.5C 71.5,70.1667 71.5,66.8333 71.5,63.5C 68.8333,63.5 66.1667,63.5 63.5,63.5C 63.494,58.7847 62.994,54.118 62,49.5C 61.3333,51.5 60.6667,53.5 60,55.5C 59.6924,54.6919 59.1924,54.0253 58.5,53.5C 58.0906,57.7962 56.9239,61.7962 55,65.5C 54.6667,65.1667 54.3333,64.8333 54,64.5C 53.5007,69.4889 53.3341,74.4889 53.5,79.5C 52.3493,74.3497 52.1826,69.0164 53,63.5C 53.653,55.6986 56.153,48.6986 60.5,42.5C 61.1174,42.3893 61.6174,42.056 62,41.5C 63.128,43.3453 63.628,45.3453 63.5,47.5C 66.1667,47.5 68.8333,47.5 71.5,47.5C 71.5,50.1667 71.5,52.8333 71.5,55.5C 76.8333,55.5 82.1667,55.5 87.5,55.5C 87.5,52.8333 87.5,50.1667 87.5,47.5C 89.5,47.5 91.5,47.5 93.5,47.5C 93.5,42.1667 93.5,36.8333 93.5,31.5C 88.8333,31.5 84.1667,31.5 79.5,31.5C 79.6633,29.1432 79.4966,26.8098 79,24.5C 78.3292,25.2524 77.4959,25.5858 76.5,25.5C 80.891,21.9711 85.891,19.4711 91.5,18C 99.9698,17.0064 108.303,17.5064 116.5,19.5 Z"/></g>
<g><path style="opacity:1" fill="#e4e4e4" d="M 12.5,170.5 C 11.9494,174.973 11.2827,179.307 10.5,183.5C 10.1667,183.5 9.83333,183.5 9.5,183.5C 8.35698,187.957 7.69031,192.624 7.5,197.5C 8.34014,211.394 8.00681,225.394 6.5,239.5C 5.16667,162.167 5.16667,84.8333 6.5,7.5C 7.17544,58.8521 7.84211,110.185 8.5,161.5C 7.70193,166.707 7.36859,171.874 7.5,177C 8.07786,178.811 8.57786,180.645 9,182.5C 9.94495,178.886 10.6116,175.219 11,171.5C 11.3826,170.944 11.8826,170.611 12.5,170.5 Z"/></g>
</svg>
